<?xml version="1.0" encoding="iso-8859-1"?>
<!-- Generator: Adobe Illustrator 18.0.0, SVG Export Plug-In . SVG Version: 6.00 Build 0)  -->
<!DOCTYPE svg PUBLIC "-//W3C//DTD SVG 1.1//EN" "http://www.w3.org/Graphics/SVG/1.1/DTD/svg11.dtd">
<svg version="1.1" id="Capa_1" xmlns="http://www.w3.org/2000/svg" xmlns:xlink="http://www.w3.org/1999/xlink" x="0px" y="0px"
	 viewBox="0 0 512 512" style="enable-background:new 0 0 512 512;" xml:space="preserve">
<g>
	<path d="M256,128c35.375,0,64-28.625,64-64S291.375,0,256,0s-64,28.625-64,64S220.625,128,256,128z"/>
	<path d="M380.906,370.281C360,326.188,324.812,245.844,319.437,217.938C312.75,183.281,287.25,160,256,160
		s-56.75,23.281-63.438,57.938c-5.375,27.906-40.563,108.25-61.469,152.344c-4.719,9.906-4,21.563,1.875,30.813
		C138.812,410.375,149.031,416,160,416h32v64c0,17.688,14.313,32,32,32h64c17.688,0,32-14.313,32-32v-64h32
		c10.969,0,21.188-5.625,27.031-14.906C384.906,391.844,385.625,380.188,380.906,370.281z"/>
</g>
<g>
</g>
<g>
</g>
<g>
</g>
<g>
</g>
<g>
</g>
<g>
</g>
<g>
</g>
<g>
</g>
<g>
</g>
<g>
</g>
<g>
</g>
<g>
</g>
<g>
</g>
<g>
</g>
<g>
</g>
</svg>
